<svg width="21" height="21" viewBox="0 0 21 21" fill="none" xmlns="http://www.w3.org/2000/svg">
<mask id="mask0_2139_3394" style="mask-type:alpha" maskUnits="userSpaceOnUse" x="0" y="0" width="21" height="21">
<rect width="21" height="21" fill="#D9D9D9"/>
</mask>
<g mask="url(#mask0_2139_3394)">
<path d="M5.25 12.25H15.75V10.5H5.25V12.25ZM5.25 9.625H15.75V7.875H5.25V9.625ZM5.25 7H15.75V5.25H5.25V7ZM19.25 19.25L15.75 15.75H3.5C3.01875 15.75 2.60677 15.5786 2.26406 15.2359C1.92135 14.8932 1.75 14.4812 1.75 14V3.5C1.75 3.01875 1.92135 2.60677 2.26406 2.26406C2.60677 1.92135 3.01875 1.75 3.5 1.75H17.5C17.9813 1.75 18.3932 1.92135 18.7359 2.26406C19.0786 2.60677 19.25 3.01875 19.25 3.5V19.25ZM3.5 14H16.4938L17.5 14.9844V3.5H3.5V14Z" fill="#161616"/>
</g>
</svg>
