<svg width="24" height="25" viewBox="0 0 24 25" fill="none" xmlns="http://www.w3.org/2000/svg">
<path d="M20.4 1.29395H3.60001C2.28001 1.29395 1.20001 2.37395 1.20001 3.69395V20.4939C1.20001 21.8151 2.28001 22.8939 3.60001 22.8939H12V14.4939H9.60001V11.5239H12V9.06395C12 6.46715 13.4544 4.64315 16.5192 4.64315L18.6828 4.64555V7.77155H17.2464C16.0536 7.77155 15.6 8.66675 15.6 9.49715V11.5251H18.6816L18 14.4939H15.6V22.8939H20.4C21.72 22.8939 22.8 21.8151 22.8 20.4939V3.69395C22.8 2.37395 21.72 1.29395 20.4 1.29395Z" fill="#699BF7"/>
</svg>
