<svg width="24" height="24" viewBox="0 0 24 24" fill="none" xmlns="http://www.w3.org/2000/svg">
<path d="M3 10V19C3 19.5304 3.21071 20.0391 3.58579 20.4142C3.96086 20.7893 4.46957 21 5 21H19C19.5304 21 20.0391 20.7893 20.4142 20.4142C20.7893 20.0391 21 19.5304 21 19V10" stroke="#161616" stroke-width="1.5"/>
<path d="M14.833 21V15C14.833 14.4696 14.6223 13.9609 14.2472 13.5858C13.8721 13.2107 13.3634 13 12.833 13H10.833C10.3025 13 9.79384 13.2107 9.41876 13.5858C9.04369 13.9609 8.83298 14.4696 8.83298 15V21" stroke="#161616" stroke-width="1.5" stroke-miterlimit="16"/>
<path d="M21.818 9.364L20.124 3.435C20.0881 3.30965 20.0124 3.19939 19.9083 3.1209C19.8042 3.04241 19.6774 2.99997 19.547 3H15.5L15.975 8.704C15.9822 8.79572 16.0112 8.8844 16.0595 8.96267C16.1079 9.04093 16.1742 9.10653 16.253 9.154C16.643 9.387 17.405 9.817 18 10C19.016 10.313 20.5 10.2 21.346 10.096C21.4282 10.0854 21.5072 10.0569 21.5773 10.0126C21.6474 9.96835 21.707 9.90929 21.752 9.8396C21.7969 9.7699 21.8261 9.69123 21.8375 9.60909C21.8489 9.52695 21.8423 9.44331 21.818 9.364Z" stroke="#161616" stroke-width="1.5"/>
<path d="M14 10C14.568 9.825 15.288 9.426 15.69 9.188C15.7837 9.13222 15.8597 9.05108 15.9093 8.95393C15.9588 8.85678 15.9799 8.7476 15.97 8.639L15.5 3H8.49999L8.02999 8.639C8.01992 8.74777 8.04088 8.85716 8.09043 8.9545C8.13999 9.05184 8.21612 9.13315 8.30999 9.189C8.71199 9.426 9.43199 9.825 9.99999 10C11.493 10.46 12.507 10.46 14 10Z" stroke="#161616" stroke-width="1.5"/>
<path d="M3.87599 3.435L2.18199 9.365C2.15808 9.44418 2.15169 9.52762 2.16326 9.60951C2.17483 9.69141 2.20408 9.76981 2.24899 9.83927C2.2939 9.90873 2.35339 9.96758 2.42333 10.0117C2.49326 10.0559 2.57197 10.0843 2.65399 10.095C3.49899 10.2 4.98399 10.312 5.99999 10C6.59499 9.817 7.35799 9.387 7.74699 9.155C7.82593 9.10743 7.89235 9.04168 7.94071 8.96323C7.98907 8.88477 8.01796 8.79589 8.02499 8.704L8.49999 3H4.45299C4.32261 2.99997 4.19577 3.04241 4.09166 3.1209C3.98756 3.19939 3.91185 3.30965 3.87599 3.435Z" stroke="#161616" stroke-width="1.5"/>
</svg>
