<svg width="20" height="15" viewBox="0 0 20 15" fill="none" xmlns="http://www.w3.org/2000/svg">
<path d="M11.07 6.40999C11.6774 5.56125 12.0041 4.54371 12.0041 3.49999C12.0041 2.45628 11.6774 1.43873 11.07 0.589992C11.6385 0.201947 12.3117 -0.00384117 13 -8.45615e-06C13.9283 -8.45615e-06 14.8185 0.368741 15.4749 1.02512C16.1313 1.6815 16.5 2.57173 16.5 3.49999C16.5 4.42825 16.1313 5.31849 15.4749 5.97486C14.8185 6.63124 13.9283 6.99999 13 6.99999C12.3117 7.00382 11.6385 6.79804 11.07 6.40999ZM3.5 3.49999C3.5 2.80776 3.70527 2.13107 4.08986 1.5555C4.47444 0.979924 5.02107 0.53132 5.66061 0.266413C6.30015 0.00150663 7.00388 -0.067805 7.68282 0.0672432C8.36175 0.202291 8.98539 0.535634 9.47487 1.02512C9.96436 1.5146 10.2977 2.13824 10.4327 2.81718C10.5678 3.49611 10.4985 4.19984 10.2336 4.83938C9.96867 5.47892 9.52007 6.02555 8.9445 6.41014C8.36892 6.79472 7.69223 6.99999 7 6.99999C6.07174 6.99999 5.1815 6.63124 4.52513 5.97486C3.86875 5.31849 3.5 4.42825 3.5 3.49999ZM5.5 3.49999C5.5 3.79666 5.58797 4.08667 5.7528 4.33335C5.91762 4.58002 6.15189 4.77228 6.42597 4.88581C6.70006 4.99934 7.00166 5.02905 7.29264 4.97117C7.58361 4.91329 7.85088 4.77043 8.06066 4.56065C8.27044 4.35087 8.4133 4.0836 8.47118 3.79263C8.52906 3.50166 8.49935 3.20006 8.38582 2.92597C8.27229 2.65188 8.08003 2.41761 7.83335 2.25279C7.58668 2.08797 7.29667 1.99999 7 1.99999C6.60218 1.99999 6.22064 2.15803 5.93934 2.43933C5.65804 2.72064 5.5 3.10217 5.5 3.49999ZM14 13V15H0V13C0 13 0 8.99999 7 8.99999C14 8.99999 14 13 14 13ZM12 13C11.86 12.22 10.67 11 7 11C3.33 11 2.07 12.31 2 13M13.95 8.99999C14.5629 9.47672 15.064 10.0818 15.4182 10.7729C15.7723 11.4639 15.9709 12.2241 16 13V15H20V13C20 13 20 9.36999 13.94 8.99999H13.95Z" fill="#161616"/>
</svg>
