<svg width="24" height="25" viewBox="0 0 24 25" fill="none" xmlns="http://www.w3.org/2000/svg">
<g clip-path="url(#clip0_257_3160)">
<path d="M0.512151 11.9486C0.511588 13.9808 1.04259 15.9651 2.05228 17.7141L0.415588 23.69L6.53109 22.0865C8.22255 23.0073 10.1177 23.4898 12.0436 23.4899H12.0487C18.4063 23.4899 23.5816 18.3165 23.5843 11.9577C23.5855 8.87643 22.3867 5.97899 20.2085 3.79912C18.0307 1.61943 15.1342 0.418398 12.0482 0.416992C5.68978 0.416992 0.51487 5.59012 0.512245 11.9486" fill="url(#paint0_linear_257_3160)"/>
<path d="M0.100313 11.9452C0.0996563 14.0506 0.649687 16.1059 1.69537 17.9175L0 24.1075L6.33478 22.4466C8.08022 23.3982 10.0454 23.9 12.0451 23.9007H12.0502C18.636 23.9007 23.9972 18.5412 24 11.9548C24.0011 8.76281 22.7591 5.76122 20.5031 3.50325C18.2468 1.24556 15.2468 0.0013125 12.0502 0C5.46337 0 0.102938 5.35875 0.100313 11.9452ZM3.87291 17.6055L3.63637 17.23C2.64206 15.649 2.11725 13.822 2.118 11.946C2.12006 6.47147 6.57544 2.0175 12.054 2.0175C14.7071 2.01863 17.2005 3.05288 19.0759 4.92938C20.9512 6.80606 21.9831 9.30075 21.9824 11.9541C21.98 17.4286 17.5245 21.8831 12.0502 21.8831H12.0463C10.2638 21.8822 8.51569 21.4035 6.99113 20.4989L6.62831 20.2838L2.86912 21.2693L3.87291 17.6055Z" fill="url(#paint1_linear_257_3160)"/>
<path d="M9.06355 6.95156C8.83987 6.45441 8.60446 6.44438 8.39174 6.43566C8.21755 6.42816 8.01843 6.42872 7.81949 6.42872C7.62037 6.42872 7.29683 6.50363 7.02337 6.80222C6.74962 7.1011 5.97824 7.82335 5.97824 9.29231C5.97824 10.7614 7.04821 12.181 7.19737 12.3804C7.34671 12.5795 9.26296 15.6905 12.2978 16.8873C14.8201 17.8819 15.3334 17.6841 15.8808 17.6342C16.4283 17.5845 17.6474 16.9121 17.8961 16.2149C18.145 15.5178 18.145 14.9202 18.0704 14.7953C17.9958 14.6709 17.7966 14.5962 17.4981 14.447C17.1994 14.2976 15.7314 13.5753 15.4578 13.4756C15.184 13.3761 14.985 13.3264 14.7859 13.6253C14.5867 13.9238 14.015 14.5962 13.8407 14.7953C13.6666 14.9949 13.4923 15.0198 13.1938 14.8704C12.895 14.7206 11.9334 14.4057 10.7926 13.3886C9.90496 12.5972 9.30571 11.6198 9.13152 11.3209C8.95733 11.0224 9.11287 10.8606 9.26258 10.7118C9.39674 10.578 9.56127 10.3631 9.71071 10.1888C9.85958 10.0145 9.90927 9.89006 10.0088 9.69094C10.1085 9.49163 10.0586 9.31725 9.98408 9.16791C9.90927 9.01856 9.32905 7.54191 9.06355 6.95156Z" fill="white"/>
</g>
<defs>
<linearGradient id="paint0_linear_257_3160" x1="1158.85" y1="2327.71" x2="1158.85" y2="0.416992" gradientUnits="userSpaceOnUse">
<stop stop-color="#1FAF38"/>
<stop offset="1" stop-color="#60D669"/>
</linearGradient>
<linearGradient id="paint1_linear_257_3160" x1="1200" y1="2410.75" x2="1200" y2="0" gradientUnits="userSpaceOnUse">
<stop stop-color="#F9F9F9"/>
<stop offset="1" stop-color="white"/>
</linearGradient>
<clipPath id="clip0_257_3160">
<rect width="24" height="24.1875" fill="white"/>
</clipPath>
</defs>
</svg>
